<?xml version="1.0" standalone="no"?>
<!DOCTYPE svg PUBLIC "-//W3C//DTD SVG 20010904//EN"
 "http://www.w3.org/TR/2001/REC-SVG-20010904/DTD/svg10.dtd">
<svg version="1.0" xmlns="http://www.w3.org/2000/svg"
 width="640.000000pt" height="640.000000pt" viewBox="0 0 640.000000 640.000000"
 preserveAspectRatio="xMidYMid meet">

<g transform="translate(0.000000,640.000000) scale(0.100000,-0.100000)"
fill="#000000" stroke="none">
<path d="M2050 4437 l0 -1264 575 -265 575 -266 575 266 575 265 0 1264 0
1263 -1150 0 -1150 0 0 -1263z m1340 589 l0 -94 123 -4 c108 -3 127 -6 165
-28 111 -63 129 -215 35 -301 -58 -54 -56 -54 -390 -57 l-313 -3 0 -95 0 -94
308 0 c344 0 363 -4 415 -71 44 -58 49 -101 45 -434 l-3 -310 -27 -47 c-21
-34 -41 -53 -80 -72 -47 -23 -63 -26 -165 -26 l-113 0 0 -95 0 -95 -190 0
-190 0 0 95 0 95 -113 0 c-102 0 -118 3 -165 26 -120 60 -143 215 -45 305 58
54 56 54 391 57 l312 4 0 94 0 94 -307 0 c-345 0 -364 4 -416 72 -43 56 -49
110 -45 440 3 302 3 303 28 346 15 27 42 54 70 70 41 25 56 27 168 31 l122 3
0 94 0 94 190 0 190 0 0 -94z"/>
<path d="M1178 3998 c-258 -111 -466 -203 -464 -206 7 -6 902 -419 926 -427
20 -6 20 -2 20 414 0 232 -3 421 -7 420 -5 0 -218 -91 -475 -201z"/>
<path d="M4740 3781 c0 -232 4 -421 8 -421 8 0 930 425 937 432 4 3 -835 368
-930 404 -13 5 -15 -46 -15 -415z"/>
<path d="M510 2349 c0 -1234 -2 -1190 66 -1327 67 -137 197 -247 349 -295 l70
-22 2205 0 2205 0 70 22 c201 64 359 234 401 432 19 92 21 2306 2 2298 -7 -3
-600 -277 -1318 -609 -1225 -566 -1308 -603 -1360 -603 -52 0 -135 37 -1360
603 -718 332 -1311 606 -1317 609 -10 4 -13 -221 -13 -1108z"/>
</g>
</svg>
